<?xml version="1.0" standalone="yes"?>

<svg version="1.1" viewBox="0.0 0.0 886.4199475065617 168.14435695538057" fill="none" stroke="none" stroke-linecap="square" stroke-miterlimit="10" xmlns="http://www.w3.org/2000/svg" xmlns:xlink="http://www.w3.org/1999/xlink"><clipPath id="p.0"><path d="m0 0l886.4199 0l0 168.14436l-886.4199 0l0 -168.14436z" clip-rule="nonzero"></path></clipPath><g clip-path="url(#p.0)"><path fill="#000000" fill-opacity="0.0" d="m0 0l886.4199 0l0 168.14436l-886.4199 0z" fill-rule="nonzero"></path><path fill="#cccccc" d="m138.97385 35.328083l209.51163 0l4.3150635 4.315048l0 21.574715l0 0l-218.14174 0l0 0l0 -21.574715z" fill-rule="nonzero"></path><path stroke="#000000" stroke-width="1.0" stroke-linejoin="round" stroke-linecap="butt" d="m138.97385 35.328083l209.51163 0l4.3150635 4.315048l0 21.574715l0 0l-218.14174 0l0 0l0 -21.574715z" fill-rule="nonzero"></path><path fill="#000000" d="m165.53331 45.057976l1.53125 0l0 9.09375l-1.53125 0l0 -9.09375zm5.4083557 5.34375l0 3.75l-1.46875 0l0 -6.921875l1.46875 0l0 1.265625q0.34375 -0.640625 0.953125 -1.0q0.625 -0.359375 1.34375 -0.359375q1.171875 0 1.890625 0.71875q0.71875 0.703125 0.71875 2.0625l0 4.234375l-1.453125 0l0 -3.796875q0 -1.90625 -1.59375 -1.90625q-0.75 0 -1.3125 0.5q-0.546875 0.5 -0.546875 1.453125zm8.60994 3.75l-1.46875 0l0 -6.921875l1.46875 0l0 6.921875zm-1.375 -8.28125q-0.265625 -0.28125 -0.265625 -0.65625q0 -0.390625 0.265625 -0.65625q0.28125 -0.265625 0.65625 -0.265625q0.375 0 0.640625 0.265625q0.28125 0.265625 0.28125 0.65625q0 0.375 -0.28125 0.65625q-0.265625 0.265625 -0.640625 0.265625q-0.375 0 -0.65625 -0.265625zm5.355011 2.53125l0 3.515625q0 0.5 0.25 0.796875q0.265625 0.28125 0.734375 0.28125q0.46875 0 0.90625 -0.453125l0.59375 1.03125q-0.765625 0.6875 -1.703125 0.6875q-0.921875 0 -1.578125 -0.640625q-0.65625 -0.65625 -0.65625 -1.75l0 -3.46875l-0.875 0l0 -1.171875l0.875 0l0 -2.171875l1.453125 0l0 2.171875l1.828125 0l0 1.171875l-1.828125 0zm5.2430115 5.75l-1.46875 0l0 -6.921875l1.46875 0l0 6.921875zm-1.375 -8.28125q-0.265625 -0.28125 -0.265625 -0.65625q0 -0.390625 0.265625 -0.65625q0.28125 -0.265625 0.65625 -0.265625q0.375 0 0.640625 0.265625q0.28125 0.265625 0.28125 0.65625q0 0.375 -0.28125 0.65625q-0.265625 0.265625 -0.640625 0.265625q-0.375 0 -0.65625 -0.265625zm9.167511 8.28125l-1.328125 0l0 -0.921875q-0.859375 1.03125 -2.296875 1.03125q-1.078125 0 -1.796875 -0.609375q-0.703125 -0.625 -0.703125 -1.640625q0 -1.015625 0.75 -1.515625q0.765625 -0.515625 2.046875 -0.515625l1.890625 0l0 -0.265625q0 -1.375 -1.546875 -1.375q-0.953125 0 -2.0 0.703125l-0.640625 -0.90625q1.25 -1.0 2.859375 -1.0q1.21875 0 1.984375 0.625q0.78125 0.609375 0.78125 1.9375l0 4.453125zm-1.453125 -2.578125l0 -0.578125l-1.640625 0q-1.578125 0 -1.578125 0.984375q0 0.515625 0.390625 0.78125q0.390625 0.265625 1.078125 0.265625q0.703125 0 1.21875 -0.390625q0.53125 -0.390625 0.53125 -1.0625zm5.136078 2.578125l-1.46875 0l0 -9.640625l1.46875 0l0 9.640625zm13.303772 -6.140625q0 2.25 -1.96875 2.84375l2.390625 3.296875l-1.953125 0l-2.171875 -3.0625l-2.015625 0l0 3.0625l-1.53125 0l0 -9.09375l3.375 0q2.078125 0 2.96875 0.703125q0.90625 0.703125 0.90625 2.25zm-3.8125 1.6875q1.296875 0 1.765625 -0.390625q0.46875 -0.40625 0.46875 -1.296875q0 -0.890625 -0.484375 -1.21875q-0.46875 -0.34375 -1.703125 -0.34375l-1.953125 0l0 3.25l1.90625 0zm11.65596 4.453125l-1.328125 0l0 -0.921875q-0.859375 1.03125 -2.296875 1.03125q-1.078125 0 -1.796875 -0.609375q-0.703125 -0.625 -0.703125 -1.640625q0 -1.015625 0.75 -1.515625q0.765625 -0.515625 2.046875 -0.515625l1.890625 0l0 -0.265625q0 -1.375 -1.546875 -1.375q-0.953125 0 -2.0 0.703125l-0.640625 -0.90625q1.25 -1.0 2.859375 -1.0q1.21875 0 1.984375 0.625q0.78125 0.609375 0.78125 1.9375l0 4.453125zm-1.453125 -2.578125l0 -0.578125l-1.640625 0q-1.578125 0 -1.578125 0.984375q0 0.515625 0.390625 0.78125q0.390625 0.265625 1.078125 0.265625q0.703125 0 1.21875 -0.390625q0.53125 -0.390625 0.53125 -1.0625zm5.136078 -1.171875l0 3.75l-1.46875 0l0 -6.921875l1.46875 0l0 1.265625q0.34375 -0.640625 0.953125 -1.0q0.625 -0.359375 1.34375 -0.359375q1.171875 0 1.890625 0.71875q0.71875 0.703125 0.71875 2.0625l0 4.234375l-1.453125 0l0 -3.796875q0 -1.90625 -1.59375 -1.90625q-0.75 0 -1.3125 0.5q-0.546875 0.5 -0.546875 1.453125zm13.54744 -3.171875l0 6.03125q0 1.84375 -1.0 2.75q-1.0 0.921875 -2.5625 0.921875q-1.546875 0 -2.8125 -0.96875l0.6875 -1.109375q1.015625 0.765625 2.046875 0.765625q1.03125 0 1.640625 -0.53125q0.609375 -0.53125 0.609375 -1.703125l0 -0.890625q-0.328125 0.609375 -0.9375 0.984375q-0.59375 0.359375 -1.359375 0.359375q-1.375 0 -2.265625 -0.953125q-0.875 -0.96875 -0.875 -2.390625q0 -1.4375 0.875 -2.390625q0.890625 -0.96875 2.265625 -0.96875q1.375 0 2.234375 1.125l0 -1.03125l1.453125 0zm-5.40625 3.203125q0 0.84375 0.53125 1.46875q0.53125 0.609375 1.421875 0.609375q0.890625 0 1.4375 -0.59375q0.5625 -0.59375 0.5625 -1.484375q0 -0.890625 -0.5625 -1.5q-0.5625 -0.625 -1.453125 -0.625q-0.875 0 -1.40625 0.640625q-0.53125 0.625 -0.53125 1.484375zm9.185318 3.71875l-1.46875 0l0 -6.921875l1.46875 0l0 6.921875zm-1.375 -8.28125q-0.265625 -0.28125 -0.265625 -0.65625q0 -0.390625 0.265625 -0.65625q0.28125 -0.265625 0.65625 -0.265625q0.375 0 0.640625 0.265625q0.28125 0.265625 0.28125 0.65625q0 0.375 -0.28125 0.65625q-0.265625 0.265625 -0.640625 0.265625q-0.375 0 -0.65625 -0.265625zm5.026886 4.53125l0 3.75l-1.46875 0l0 -6.921875l1.46875 0l0 1.265625q0.34375 -0.640625 0.953125 -1.0q0.625 -0.359375 1.34375 -0.359375q1.171875 0 1.890625 0.71875q0.71875 0.703125 0.71875 2.0625l0 4.234375l-1.453125 0l0 -3.796875q0 -1.90625 -1.59375 -1.90625q-0.75 0 -1.3125 0.5q-0.546875 0.5 -0.546875 1.453125zm13.54744 -3.171875l0 6.03125q0 1.84375 -1.0 2.75q-1.0 0.921875 -2.5625 0.921875q-1.546875 0 -2.8125 -0.96875l0.6875 -1.109375q1.015625 0.765625 2.046875 0.765625q1.03125 0 1.640625 -0.53125q0.609375 -0.53125 0.609375 -1.703125l0 -0.890625q-0.328125 0.609375 -0.9375 0.984375q-0.59375 0.359375 -1.359375 0.359375q-1.375 0 -2.265625 -0.953125q-0.875 -0.96875 -0.875 -2.390625q0 -1.4375 0.875 -2.390625q0.890625 -0.96875 2.265625 -0.96875q1.375 0 2.234375 1.125l0 -1.03125l1.453125 0zm-5.40625 3.203125q0 0.84375 0.53125 1.46875q0.53125 0.609375 1.421875 0.609375q0.890625 0 1.4375 -0.59375q0.5625 -0.59375 0.5625 -1.484375q0 -0.890625 -0.5625 -1.5q-0.5625 -0.625 -1.453125 -0.625q-0.875 0 -1.40625 0.640625q-0.53125 0.625 -0.53125 1.484375zm14.696594 -5.375q2.453125 0 3.765625 1.203125q1.3125 1.1875 1.3125 3.3125q0 2.109375 -1.28125 3.34375q-1.265625 1.234375 -3.890625 1.234375l-3.015625 0l0 -9.09375l3.109375 0zm3.53125 4.546875q0 -3.125 -3.578125 -3.125l-1.53125 0l0 6.234375l1.703125 0q1.65625 0 2.53125 -0.78125q0.875 -0.796875 0.875 -2.328125zm8.406921 1.375l0 -3.75l1.453125 0l0 6.921875l-1.453125 0l0 -1.265625q-0.359375 0.640625 -0.984375 1.015625q-0.609375 0.359375 -1.3125 0.359375q-1.171875 0 -1.90625 -0.71875q-0.71875 -0.71875 -0.71875 -2.0625l0 -4.25l1.46875 0l0 3.796875q0 1.921875 1.578125 1.921875q0.75 0 1.3125 -0.5q0.5625 -0.5 0.5625 -1.46875zm7.40683 -2.375q-1.09375 0 -1.640625 0.703125q-0.53125 0.703125 -0.53125 1.875l0 2.96875l-1.46875 0l0 -6.921875l1.46875 0l0 1.390625q0.34375 -0.640625 0.9375 -1.046875q0.609375 -0.421875 1.296875 -0.4375l0.015625 1.46875q-0.046875 0 -0.078125 0zm7.2599792 5.546875l-1.328125 0l0 -0.921875q-0.859375 1.03125 -2.296875 1.03125q-1.078125 0 -1.796875 -0.609375q-0.703125 -0.625 -0.703125 -1.640625q0 -1.015625 0.75 -1.515625q0.765625 -0.515625 2.046875 -0.515625l1.890625 0l0 -0.265625q0 -1.375 -1.546875 -1.375q-0.953125 0 -2.0 0.703125l-0.640625 -0.90625q1.25 -1.0 2.859375 -1.0q1.21875 0 1.984375 0.625q0.78125 0.609375 0.78125 1.9375l0 4.453125zm-1.453125 -2.578125l0 -0.578125l-1.640625 0q-1.578125 0 -1.578125 0.984375q0 0.515625 0.390625 0.78125q0.390625 0.265625 1.078125 0.265625q0.703125 0 1.21875 -0.390625q0.53125 -0.390625 0.53125 -1.0625zm5.464203 -3.171875l0 3.515625q0 0.5 0.25 0.796875q0.265625 0.28125 0.734375 0.28125q0.46875 0 0.90625 -0.453125l0.59375 1.03125q-0.765625 0.6875 -1.703125 0.6875q-0.921875 0 -1.578125 -0.640625q-0.65625 -0.65625 -0.65625 -1.75l0 -3.46875l-0.875 0l0 -1.171875l0.875 0l0 -2.171875l1.453125 0l0 2.171875l1.828125 0l0 1.171875l-1.828125 0zm5.2430115 5.75l-1.46875 0l0 -6.921875l1.46875 0l0 6.921875zm-1.375 -8.28125q-0.265625 -0.28125 -0.265625 -0.65625q0 -0.390625 0.265625 -0.65625q0.28125 -0.265625 0.65625 -0.265625q0.375 0 0.640625 0.265625q0.28125 0.265625 0.28125 0.65625q0 0.375 -0.28125 0.65625q-0.265625 0.265625 -0.640625 0.265625q-0.375 0 -0.65625 -0.265625zm5.167511 6.453125q0.625 0.625 1.578125 0.625q0.953125 0 1.5625 -0.625q0.625 -0.625 0.625 -1.625q0 -1.0 -0.625 -1.625q-0.609375 -0.640625 -1.5625 -0.640625q-0.953125 0 -1.578125 0.640625q-0.609375 0.625 -0.609375 1.625q0 1.0 0.609375 1.625zm4.171875 0.90625q-1.03125 1.03125 -2.59375 1.03125q-1.5625 0 -2.609375 -1.03125q-1.03125 -1.046875 -1.03125 -2.53125q0 -1.5 1.03125 -2.53125q1.046875 -1.03125 2.609375 -1.03125q1.5625 0 2.59375 1.03125q1.046875 1.03125 1.046875 2.53125q0 1.484375 -1.046875 2.53125zm4.377411 -2.828125l0 3.75l-1.46875 0l0 -6.921875l1.46875 0l0 1.265625q0.34375 -0.640625 0.953125 -1.0q0.625 -0.359375 1.34375 -0.359375q1.171875 0 1.890625 0.71875q0.71875 0.703125 0.71875 2.0625l0 4.234375l-1.453125 0l0 -3.796875q0 -1.90625 -1.59375 -1.90625q-0.75 0 -1.3125 0.5q-0.546875 0.5 -0.546875 1.453125z" fill-rule="nonzero"></path><path fill="#2195d3" d="m357.11557 35.354332l209.51163 0l4.3150635 4.3150444l0 21.574718l0 0l-218.14172 0l0 0l0 -21.574718z" fill-rule="nonzero"></path><path stroke="#000000" stroke-width="1.0" stroke-linejoin="round" stroke-linecap="butt" d="m357.11557 35.354332l209.51163 0l4.3150635 4.3150444l0 21.574718l0 0l-218.14172 0l0 0l0 -21.574718z" fill-rule="nonzero"></path><path fill="#ffffff" d="m410.89255 48.09985q0 2.1875 -1.71875 2.828125l2.296875 3.25l-2.5 0l-2.015625 -2.90625l-1.40625 0l0 2.90625l-2.015625 0l0 -9.09375l3.4375 0q2.125 0 3.015625 0.71875q0.90625 0.71875 0.90625 2.296875zm-3.859375 1.421875q1.046875 0 1.421875 -0.328125q0.375 -0.34375 0.375 -1.078125q0 -0.734375 -0.390625 -1.0q-0.390625 -0.28125 -1.359375 -0.28125l-1.53125 0l0 2.6875l1.484375 0zm11.923889 4.65625l-1.828125 0l0 -0.84375q-0.75 0.953125 -1.875 0.953125q-1.109375 0 -1.859375 -0.640625q-0.75 -0.65625 -0.75 -1.71875q0 -1.078125 0.78125 -1.609375q0.78125 -0.53125 2.125 -0.53125l1.453125 0l0 -0.046875q0 -1.109375 -1.171875 -1.109375q-0.515625 0 -1.078125 0.203125q-0.5625 0.203125 -0.953125 0.5l-0.875 -1.265625q1.375 -1.0 3.15625 -1.0q1.265625 0 2.0625 0.640625q0.8125 0.625 0.8125 2.015625l0 4.453125zm-1.953125 -2.671875l0 -0.328125l-1.234375 0q-1.15625 0 -1.15625 0.71875q0 0.390625 0.265625 0.59375q0.28125 0.1875 0.796875 0.1875q0.53125 0 0.921875 -0.3125q0.40625 -0.3125 0.40625 -0.859375zm5.88562 -1.234375l0 3.90625l-1.953125 0l0 -7.0l1.953125 0l0 0.78125q0.875 -0.890625 1.984375 -0.890625q1.109375 0 1.859375 0.78125q0.75 0.78125 0.75 2.078125l0 4.25l-1.953125 0l0 -3.953125q0 -1.609375 -1.1875 -1.609375q-0.578125 0 -1.015625 0.421875q-0.4375 0.421875 -0.4375 1.234375zm11.469788 0.265625q0 -0.84375 -0.46875 -1.328125q-0.46875 -0.484375 -1.15625 -0.484375q-0.6875 0 -1.1875 0.484375q-0.5 0.484375 -0.5 1.3125q0 0.828125 0.484375 1.34375q0.484375 0.515625 1.1875 0.515625q0.703125 0 1.171875 -0.5q0.46875 -0.515625 0.46875 -1.34375zm0.265625 2.453125q-0.921875 1.03125 -2.296875 1.03125q-1.359375 0 -2.3125 -0.921875q-0.9375 -0.9375 -0.9375 -2.484375q0 -1.5625 0.96875 -2.546875q0.96875 -1.0 2.21875 -1.0q1.25 0 2.0625 1.03125l0 -0.921875l1.953125 0l0 6.09375q0 0.9375 -0.328125 1.65625q-0.328125 0.734375 -0.875 1.140625q-1.078125 0.859375 -2.546875 0.859375q-0.78125 0 -1.59375 -0.25q-0.8125 -0.25 -1.421875 -0.71875l0.75 -1.46875q0.96875 0.734375 2.03125 0.734375q1.078125 0 1.703125 -0.546875q0.625 -0.53125 0.625 -1.6875zm5.6710815 1.1875l-1.953125 0l0 -7.0l1.953125 0l0 7.0zm-1.796875 -7.875q-0.328125 -0.34375 -0.328125 -0.8125q0 -0.484375 0.328125 -0.8125q0.34375 -0.34375 0.8125 -0.34375q0.484375 0 0.8125 0.34375q0.34375 0.328125 0.34375 0.8125q0 0.46875 -0.34375 0.8125q-0.328125 0.328125 -0.8125 0.328125q-0.46875 0 -0.8125 -0.328125zm5.6886597 3.96875l0 3.90625l-1.953125 0l0 -7.0l1.953125 0l0 0.78125q0.875 -0.890625 1.984375 -0.890625q1.109375 0 1.859375 0.78125q0.75 0.78125 0.75 2.078125l0 4.25l-1.953125 0l0 -3.953125q0 -1.609375 -1.1875 -1.609375q-0.578125 0 -1.015625 0.421875q-0.4375 0.421875 -0.4375 1.234375zm11.469788 0.265625q0 -0.84375 -0.46875 -1.328125q-0.46875 -0.484375 -1.15625 -0.484375q-0.6875 0 -1.1875 0.484375q-0.5 0.484375 -0.5 1.3125q0 0.828125 0.484375 1.34375q0.484375 0.515625 1.1875 0.515625q0.703125 0 1.171875 -0.5q0.46875 -0.515625 0.46875 -1.34375zm0.265625 2.453125q-0.921875 1.03125 -2.296875 1.03125q-1.359375 0 -2.3125 -0.921875q-0.9375 -0.9375 -0.9375 -2.484375q0 -1.5625 0.96875 -2.546875q0.96875 -1.0 2.21875 -1.0q1.25 0 2.0625 1.03125l0 -0.921875l1.953125 0l0 6.09375q0 0.9375 -0.328125 1.65625q-0.328125 0.734375 -0.875 1.140625q-1.078125 0.859375 -2.546875 0.859375q-0.78125 0 -1.59375 -0.25q-0.8125 -0.25 -1.421875 -0.71875l0.75 -1.46875q0.96875 0.734375 2.03125 0.734375q1.078125 0 1.703125 -0.546875q0.625 -0.53125 0.625 -1.6875zm10.642822 -7.90625q2.4375 0 3.734375 1.203125q1.296875 1.1875 1.296875 3.3125q0 2.109375 -1.265625 3.34375q-1.265625 1.234375 -3.875 1.234375l-3.09375 0l0 -9.09375l3.203125 0zm0.109375 7.296875q1.390625 0 2.125 -0.703125q0.75 -0.703125 0.75 -2.03125q0 -1.34375 -0.75 -2.0625q-0.734375 -0.71875 -2.28125 -0.71875l-1.140625 0l0 5.515625l1.296875 0zm11.249268 -1.421875l0 -3.78125l1.953125 0l0 7.0l-1.953125 0l0 -0.921875q-0.734375 1.03125 -1.890625 1.03125q-1.140625 0 -1.921875 -0.71875q-0.78125 -0.734375 -0.78125 -2.140625l0 -4.25l1.96875 0l0 3.8125q0 1.609375 1.171875 1.609375q0.59375 0 1.015625 -0.421875q0.4375 -0.421875 0.4375 -1.21875zm7.7018433 -2.0625q-0.875 0 -1.3125 0.625q-0.421875 0.609375 -0.421875 1.625l0 3.03125l-1.953125 0l0 -7.0l1.953125 0l0 0.921875q0.375 -0.421875 0.9375 -0.71875q0.5625 -0.296875 1.15625 -0.3125l0.015625 1.828125l-0.375 0zm7.727844 5.28125l-1.828125 0l0 -0.84375q-0.75 0.953125 -1.875 0.953125q-1.109375 0 -1.859375 -0.640625q-0.75 -0.65625 -0.75 -1.71875q0 -1.078125 0.78125 -1.609375q0.78125 -0.53125 2.125 -0.53125l1.453125 0l0 -0.046875q0 -1.109375 -1.171875 -1.109375q-0.515625 0 -1.078125 0.203125q-0.5625 0.203125 -0.953125 0.5l-0.875 -1.265625q1.375 -1.0 3.15625 -1.0q1.265625 0 2.0625 0.640625q0.8125 0.625 0.8125 2.015625l0 4.453125zm-1.953125 -2.671875l0 -0.328125l-1.234375 0q-1.15625 0 -1.15625 0.71875q0 0.390625 0.265625 0.59375q0.28125 0.1875 0.796875 0.1875q0.53125 0 0.921875 -0.3125q0.40625 -0.3125 0.40625 -0.859375zm6.26062 -2.921875l0 3.140625q0 0.40625 0.203125 0.640625q0.21875 0.21875 0.5 0.21875q0.546875 0 0.921875 -0.5l0.734375 1.359375q-0.921875 0.84375 -1.9375 0.84375q-1.0 0 -1.703125 -0.65625q-0.6875 -0.671875 -0.6875 -1.8125l0 -3.234375l-0.8125 0l0 -1.40625l0.8125 0l0 -2.09375l1.96875 0l0 2.09375l1.6875 0l0 1.40625l-1.6875 0zm5.4893494 5.59375l-1.953125 0l0 -7.0l1.953125 0l0 7.0zm-1.796875 -7.875q-0.328125 -0.34375 -0.328125 -0.8125q0 -0.484375 0.328125 -0.8125q0.34375 -0.34375 0.8125 -0.34375q0.484375 0 0.8125 0.34375q0.34375 0.328125 0.34375 0.8125q0 0.46875 -0.34375 0.8125q-0.328125 0.328125 -0.8125 0.328125q-0.46875 0 -0.8125 -0.328125zm5.2980347 4.375q0 0.859375 0.484375 1.40625q0.484375 0.53125 1.25 0.53125q0.765625 0 1.25 -0.53125q0.484375 -0.546875 0.484375 -1.40625q0 -0.859375 -0.484375 -1.40625q-0.484375 -0.546875 -1.25 -0.546875q-0.765625 0 -1.25 0.546875q-0.484375 0.546875 -0.484375 1.40625zm5.4375 0.015625q0 1.515625 -1.0625 2.5625q-1.046875 1.03125 -2.640625 1.03125q-1.59375 0 -2.65625 -1.03125q-1.046875 -1.046875 -1.046875 -2.5625q0 -1.53125 1.046875 -2.578125q1.0625 -1.046875 2.65625 -1.046875q1.59375 0 2.640625 1.046875q1.0625 1.046875 1.0625 2.578125zm3.6030884 -0.421875l0 3.90625l-1.953125 0l0 -7.0l1.953125 0l0 0.78125q0.875 -0.890625 1.984375 -0.890625q1.109375 0 1.859375 0.78125q0.75 0.78125 0.75 2.078125l0 4.25l-1.953125 0l0 -3.953125q0 -1.609375 -1.1875 -1.609375q-0.578125 0 -1.015625 0.421875q-0.4375 0.421875 -0.4375 1.234375z" fill-rule="nonzero"></path><path fill="#000000" fill-opacity="0.0" d="m575.2573 35.328083l209.5116 0l4.3150635 4.315048l0 21.574715l0 0l-218.14172 0l0 0l0 -21.574715z" fill-rule="nonzero"></path><path stroke="#000000" stroke-width="1.0" stroke-linejoin="round" stroke-linecap="butt" d="m575.2573 35.328083l209.5116 0l4.3150635 4.315048l0 21.574715l0 0l-218.14172 0l0 0l0 -21.574715z" fill-rule="nonzero"></path><path fill="#000000" d="m650.22437 45.057976l1.53125 0l0 9.09375l-1.53125 0l0 -9.09375zm6.7677 9.203125q-1.3125 0 -2.296875 -0.984375q-0.96875 -1.0 -0.96875 -2.609375q0 -1.609375 1.0 -2.5625q1.0 -0.96875 2.375 -0.96875q1.390625 0 2.25 1.171875l0 -3.796875l1.453125 0l0 9.640625l-1.453125 0l0 -1.046875q-0.8125 1.15625 -2.359375 1.15625zm-1.8125 -3.53125q0 0.984375 0.640625 1.609375q0.640625 0.625 1.5 0.625q0.859375 0 1.453125 -0.625q0.59375 -0.625 0.59375 -1.609375q0 -1.0 -0.59375 -1.65625q-0.59375 -0.671875 -1.46875 -0.671875q-0.875 0 -1.5 0.671875q-0.625 0.65625 -0.625 1.65625zm9.409607 3.421875l-1.46875 0l0 -9.640625l1.46875 0l0 9.640625zm8.620605 -2.828125l-5.421875 0q0.0625 0.765625 0.6875 1.234375q0.640625 0.453125 1.46875 0.453125q1.296875 0 1.96875 -0.828125l0.828125 0.921875q-1.109375 1.15625 -2.90625 1.15625q-1.453125 0 -2.484375 -0.96875q-1.015625 -0.96875 -1.015625 -2.59375q0 -1.640625 1.03125 -2.59375q1.046875 -0.96875 2.453125 -0.96875q1.421875 0 2.40625 0.859375q0.984375 0.84375 0.984375 2.328125l0 1.0zm-5.421875 -1.140625l3.96875 0q0 -0.875 -0.546875 -1.328125q-0.546875 -0.46875 -1.34375 -0.46875q-0.796875 0 -1.4375 0.484375q-0.640625 0.484375 -0.640625 1.3125zm14.513672 -3.71875l0 7.6875l-1.53125 0l0 -7.6875l-2.75 0l0 -1.40625l7.046875 0l0 1.40625l-2.765625 0zm5.878296 7.6875l-1.46875 0l0 -6.921875l1.46875 0l0 6.921875zm-1.375 -8.28125q-0.265625 -0.28125 -0.265625 -0.65625q0 -0.390625 0.265625 -0.65625q0.28125 -0.265625 0.65625 -0.265625q0.375 0 0.640625 0.265625q0.28125 0.265625 0.28125 0.65625q0 0.375 -0.28125 0.65625q-0.265625 0.265625 -0.640625 0.265625q-0.375 0 -0.65625 -0.265625zm5.0268555 4.53125l0 3.75l-1.46875 0l0 -6.921875l1.46875 0l0 1.265625q0.3125 -0.640625 0.9375 -1.0q0.625 -0.359375 1.359375 -0.359375q1.640625 0 2.21875 1.34375q1.03125 -1.34375 2.5625 -1.34375q1.171875 0 1.890625 0.71875q0.71875 0.703125 0.71875 2.0625l0 4.234375l-1.453125 0l0 -3.796875q0 -1.90625 -1.578125 -1.90625q-0.75 0 -1.3125 0.46875q-0.546875 0.46875 -0.5625 1.390625l0 3.84375l-1.453125 0l0 -3.796875q0 -0.984375 -0.359375 -1.4375q-0.34375 -0.46875 -1.109375 -0.46875q-0.75 0 -1.3125 0.5q-0.546875 0.5 -0.546875 1.453125zm18.483398 0.921875l-5.421875 0q0.0625 0.765625 0.6875 1.234375q0.640625 0.453125 1.46875 0.453125q1.296875 0 1.96875 -0.828125l0.828125 0.921875q-1.109375 1.15625 -2.90625 1.15625q-1.453125 0 -2.484375 -0.96875q-1.015625 -0.96875 -1.015625 -2.59375q0 -1.640625 1.03125 -2.59375q1.046875 -0.96875 2.453125 -0.96875q1.421875 0 2.40625 0.859375q0.984375 0.84375 0.984375 2.328125l0 1.0zm-5.421875 -1.140625l3.96875 0q0 -0.875 -0.546875 -1.328125q-0.546875 -0.46875 -1.34375 -0.46875q-0.796875 0 -1.4375 0.484375q-0.640625 0.484375 -0.640625 1.3125z" fill-rule="nonzero"></path><path fill="#000000" fill-opacity="0.0" d="m789.084 48.272964l12.830444 0l0 51.750694l-448.38016 0l0 -32.758568l-0.8597412 0" fill-rule="nonzero"></path><path stroke="#999999" stroke-width="2.0" stroke-linejoin="round" stroke-linecap="butt" stroke-dasharray="8.0,6.0" d="m796.66394 48.272964l5.2504883 0l0 51.7507l-448.38016 0l0 -20.789413" fill-rule="evenodd"></path><path fill="#999999" stroke="#999999" stroke-width="2.0" stroke-linecap="butt" d="m790.084 48.272964c0 -1.8170166 1.4729614 -3.289997 3.289978 -3.289997c1.8170166 0 3.290039 1.4729805 3.290039 3.289997c0 1.8170166 -1.4730225 3.290001 -3.290039 3.290001c-1.8170166 0 -3.289978 -1.4729843 -3.289978 -3.290001z" fill-rule="nonzero"></path><path fill="#999999" stroke="#999999" stroke-width="2.0" stroke-linecap="butt" d="m356.82925 78.997574l-3.9452515 -8.816193l-2.6446838 9.289551z" fill-rule="evenodd"></path><path fill="#000000" fill-opacity="0.0" d="m133.49344 123.296585l0 -30.614174l0.06298828 0l0 -30.61417" fill-rule="nonzero"></path><path stroke="#999999" stroke-width="2.0" stroke-linejoin="round" stroke-linecap="butt" stroke-dasharray="8.0,6.0" d="m133.49344 123.296585l0 -30.614174l0.06298828 0l0 -30.61417" fill-rule="nonzero"></path><path fill="#ff4081" d="m81.35171 106.921394l0 0c0 -3.8095322 3.0882416 -6.8977737 6.8977737 -6.8977737l90.5509 0c1.8294067 0 3.5838776 0.72673035 4.877472 2.0203094c1.2935791 1.2935867 2.0203094 3.0480652 2.0203094 4.8774643l0 27.590279c0 3.8095398 -3.0882416 6.8977814 -6.8977814 6.8977814l-90.5509 0l0 0c-3.8095322 0 -6.8977737 -3.0882416 -6.8977737 -6.8977814z" fill-rule="nonzero"></path><path stroke="#999999" stroke-width="1.0" stroke-linejoin="round" stroke-linecap="butt" d="m81.35171 106.921394l0 0c0 -3.8095322 3.0882416 -6.8977737 6.8977737 -6.8977737l90.5509 0c1.8294067 0 3.5838776 0.72673035 4.877472 2.0203094c1.2935791 1.2935867 2.0203094 3.0480652 2.0203094 4.8774643l0 27.590279c0 3.8095398 -3.0882416 6.8977814 -6.8977814 6.8977814l-90.5509 0l0 0c-3.8095322 0 -6.8977737 -3.0882416 -6.8977737 -6.8977814z" fill-rule="nonzero"></path><path fill="#f3f3f3" d="m97.50703 115.45403l-0.90625 2.0625l-1.640625 0l4.0 -9.09375l1.640625 0l4.0 9.09375l-1.625 0l-0.921875 -2.0625l-4.546875 0zm3.921875 -1.421875l-1.640625 -3.75l-1.65625 3.75l3.296875 0zm8.170685 -3.53125q1.40625 0 2.390625 0.96875q0.984375 0.953125 0.984375 2.5625q0 1.59375 -0.984375 2.59375q-0.984375 1.0 -2.296875 1.0q-1.296875 0 -2.328125 -1.15625l0 3.5625l-1.46875 0l0 -9.4375l1.46875 0l0 1.21875q0.84375 -1.3125 2.234375 -1.3125zm-2.265625 3.578125q0 0.984375 0.59375 1.609375q0.59375 0.625 1.453125 0.625q0.859375 0 1.5 -0.609375q0.640625 -0.625 0.640625 -1.625q0 -1.0 -0.625 -1.65625q-0.625 -0.65625 -1.5 -0.65625q-0.875 0 -1.46875 0.65625q-0.59375 0.65625 -0.59375 1.65625zm11.222092 -3.578125q1.40625 0 2.390625 0.96875q0.984375 0.953125 0.984375 2.5625q0 1.59375 -0.984375 2.59375q-0.984375 1.0 -2.296875 1.0q-1.296875 0 -2.328125 -1.15625l0 3.5625l-1.46875 0l0 -9.4375l1.46875 0l0 1.21875q0.84375 -1.3125 2.234375 -1.3125zm-2.265625 3.578125q0 0.984375 0.59375 1.609375q0.59375 0.625 1.453125 0.625q0.859375 0 1.5 -0.609375q0.640625 -0.625 0.640625 -1.625q0 -1.0 -0.625 -1.65625q-0.625 -0.65625 -1.5 -0.65625q-0.875 0 -1.46875 0.65625q-0.59375 0.65625 -0.59375 1.65625zm8.987717 3.4375l-1.46875 0l0 -9.640625l1.46875 0l0 9.640625zm3.6518936 0l-1.4687576 0l0 -6.921875l1.4687576 0l0 6.921875zm-1.3750076 -8.28125q-0.265625 -0.28125 -0.265625 -0.65625q0 -0.390625 0.265625 -0.65625q0.28125 -0.265625 0.6562576 -0.265625q0.375 0 0.640625 0.265625q0.28125 0.265625 0.28125 0.65625q0 0.375 -0.28125 0.65625q-0.265625 0.265625 -0.640625 0.265625q-0.37500763 0 -0.6562576 -0.265625zm6.6362686 8.390625q-1.453125 0 -2.5 -0.984375q-1.03125 -0.984375 -1.03125 -2.5625q0 -1.59375 1.078125 -2.578125q1.09375 -1.0 2.65625 -1.0q1.5625 0 2.640625 1.078125l-0.859375 1.046875q-0.890625 -0.78125 -1.8125 -0.78125q-0.90625 0 -1.578125 0.609375q-0.671875 0.609375 -0.671875 1.5625q0 0.953125 0.65625 1.625q0.671875 0.65625 1.640625 0.65625q0.96875 0 1.828125 -0.890625l0.859375 0.9375q-1.265625 1.28125 -2.90625 1.28125zm10.208221 -0.109375l-1.328125 0l0 -0.921875q-0.859375 1.03125 -2.296875 1.03125q-1.078125 0 -1.796875 -0.609375q-0.703125 -0.625 -0.703125 -1.640625q0 -1.015625 0.75 -1.515625q0.765625 -0.515625 2.046875 -0.515625l1.890625 0l0 -0.265625q0 -1.375 -1.546875 -1.375q-0.953125 0 -2.0 0.703125l-0.640625 -0.90625q1.25 -1.0 2.859375 -1.0q1.21875 0 1.984375 0.625q0.78125 0.609375 0.78125 1.9375l0 4.453125zm-1.453125 -2.578125l0 -0.578125l-1.640625 0q-1.578125 0 -1.578125 0.984375q0 0.515625 0.390625 0.78125q0.390625 0.265625 1.078125 0.265625q0.703125 0 1.21875 -0.390625q0.53125 -0.390625 0.53125 -1.0625zm5.464203 -3.171875l0 3.515625q0 0.5 0.25 0.796875q0.265625 0.28125 0.734375 0.28125q0.46875 0 0.90625 -0.453125l0.59375 1.03125q-0.765625 0.6875 -1.703125 0.6875q-0.921875 0 -1.578125 -0.640625q-0.65625 -0.65625 -0.65625 -1.75l0 -3.46875l-0.875 0l0 -1.171875l0.875 0l0 -2.171875l1.453125 0l0 2.171875l1.828125 0l0 1.171875l-1.828125 0zm5.2430115 5.75l-1.46875 0l0 -6.921875l1.46875 0l0 6.921875zm-1.375 -8.28125q-0.265625 -0.28125 -0.265625 -0.65625q0 -0.390625 0.265625 -0.65625q0.28125 -0.265625 0.65625 -0.265625q0.375 0 0.640625 0.265625q0.28125 0.265625 0.28125 0.65625q0 0.375 -0.28125 0.65625q-0.265625 0.265625 -0.640625 0.265625q-0.375 0 -0.65625 -0.265625zm5.167511 6.453125q0.625 0.625 1.578125 0.625q0.953125 0 1.5625 -0.625q0.625 -0.625 0.625 -1.625q0 -1.0 -0.625 -1.625q-0.609375 -0.640625 -1.5625 -0.640625q-0.953125 0 -1.578125 0.640625q-0.609375 0.625 -0.609375 1.625q0 1.0 0.609375 1.625zm4.171875 0.90625q-1.03125 1.03125 -2.59375 1.03125q-1.5625 0 -2.609375 -1.03125q-1.03125 -1.046875 -1.03125 -2.53125q0 -1.5 1.03125 -2.53125q1.046875 -1.03125 2.609375 -1.03125q1.5625 0 2.59375 1.03125q1.046875 1.03125 1.046875 2.53125q0 1.484375 -1.046875 2.53125zm4.377411 -2.828125l0 3.75l-1.46875 0l0 -6.921875l1.46875 0l0 1.265625q0.34375 -0.640625 0.953125 -1.0q0.625 -0.359375 1.34375 -0.359375q1.171875 0 1.890625 0.71875q0.71875 0.703125 0.71875 2.0625l0 4.234375l-1.453125 0l0 -3.796875q0 -1.90625 -1.59375 -1.90625q-0.75 0 -1.3125 0.5q-0.546875 0.5 -0.546875 1.453125z" fill-rule="nonzero"></path><path fill="#f3f3f3" d="m121.21367 125.62591q-0.671875 0 -1.109375 0.28125q-0.421875 0.265625 -0.421875 0.828125q0 0.546875 0.421875 0.84375q0.4375 0.28125 1.828125 0.6250076q1.40625 0.328125 2.109375 0.953125q0.703125 0.609375 0.703125 1.796875q0 1.1875 -0.890625 1.9375q-0.890625 0.734375 -2.359375 0.734375q-2.125 0 -3.78125 -1.46875l0.96875 -1.15625q1.375 1.1875 2.859375 1.1875q0.734375 0 1.171875 -0.3125q0.4375 -0.328125 0.4375 -0.84375q0 -0.53125 -0.40625 -0.8125q-0.40625 -0.296875 -1.40625 -0.53125q-1.0 -0.25 -1.53125 -0.453125q-0.515625 -0.203125 -0.921875 -0.53125q-0.796875 -0.609375 -0.796875 -1.8593826q0 -1.265625 0.90625 -1.953125q0.921875 -0.6875 2.265625 -0.6875q0.875 0 1.734375 0.296875q0.859375 0.28125 1.484375 0.796875l-0.8125 1.15625q-0.40625 -0.359375 -1.09375 -0.59375q-0.6875 -0.234375 -1.359375 -0.234375zm7.2248077 2.140625l0 3.5156326q0 0.5 0.25 0.796875q0.265625 0.28125 0.734375 0.28125q0.46875 0 0.90625 -0.453125l0.59375 1.03125q-0.765625 0.6875 -1.703125 0.6875q-0.921875 0 -1.578125 -0.640625q-0.65625 -0.65625 -0.65625 -1.75l0 -3.4687576l-0.875 0l0 -1.171875l0.875 0l0 -2.171875l1.453125 0l0 2.171875l1.828125 0l0 1.171875l-1.828125 0zm9.383636 5.7500076l-1.328125 0l0 -0.921875q-0.859375 1.03125 -2.296875 1.03125q-1.078125 0 -1.796875 -0.609375q-0.703125 -0.625 -0.703125 -1.640625q0 -1.015625 0.75 -1.515625q0.765625 -0.515625 2.046875 -0.515625l1.890625 0l0 -0.265625q0 -1.3750076 -1.546875 -1.3750076q-0.953125 0 -2.0 0.7031326l-0.640625 -0.9062576q1.25 -1.0 2.859375 -1.0q1.21875 0 1.984375 0.625q0.78125 0.609375 0.78125 1.9375076l0 4.453125zm-1.453125 -2.578125l0 -0.578125l-1.640625 0q-1.578125 0 -1.578125 0.984375q0 0.515625 0.390625 0.78125q0.390625 0.265625 1.078125 0.265625q0.703125 0 1.21875 -0.390625q0.53125 -0.390625 0.53125 -1.0625zm7.307953 -2.9687576q-1.09375 0 -1.640625 0.7031326q-0.53125 0.703125 -0.53125 1.875l0 2.96875l-1.46875 0l0 -6.9218826l1.46875 0l0 1.390625q0.34375 -0.640625 0.9375 -1.046875q0.609375 -0.421875 1.296875 -0.4375l0.015625 1.46875q-0.046875 0 -0.078125 0zm3.4474945 -0.203125l0 3.5156326q0 0.5 0.25 0.796875q0.265625 0.28125 0.734375 0.28125q0.46875 0 0.90625 -0.453125l0.59375 1.03125q-0.765625 0.6875 -1.703125 0.6875q-0.921875 0 -1.578125 -0.640625q-0.65625 -0.65625 -0.65625 -1.75l0 -3.4687576l-0.875 0l0 -1.171875l0.875 0l0 -2.171875l1.453125 0l0 2.171875l1.828125 0l0 1.171875l-1.828125 0z" fill-rule="nonzero"></path><path fill="#000000" fill-opacity="0.0" d="m130.34645 61.220474l699.3071 0" fill-rule="nonzero"></path><path stroke="#000000" stroke-width="1.0" stroke-linejoin="round" stroke-linecap="butt" d="m134.13646 61.220474l691.72705 0" fill-rule="evenodd"></path><path fill="#000000" stroke="#000000" stroke-width="1.0" stroke-linecap="butt" d="m134.13646 62.86547l-3.2900085 0l0 -3.289997l3.2900085 0l0 3.289997z" fill-rule="nonzero"></path><path fill="#000000" stroke="#000000" stroke-width="1.0" stroke-linecap="butt" d="m825.8635 59.575474l3.290039 0l0 3.289997l-3.290039 0l0 -3.289997z" fill-rule="nonzero"></path></g></svg>

